<svg height="512pt" viewBox="-24 0 511 512" width="512pt" xmlns="http://www.w3.org/2000/svg"><path d="m48.515625 216c0 8.878906 7.128906 16 16 16-17.039063 0-30.960937 13.28125-32 30-14.480469-10.160156-24-26.960938-24-46 0-30.878906 25.039063-56 56-56 30.878906 0 56 25.121094 56 56 0 19.039062-9.511719 35.921875-24.078125 46-1.042969-16.71875-14.960938-30-31.921875-30 8.808594 0 16-7.121094 16-16 0-8.800781-7.191406-16-16-16-8.878906 0-16 7.199219-16 16zm0 0" fill="#656d78"/><path d="m64.515625 232c16.960937 0 30.878906 13.28125 31.921875 30-9.042969 6.320312-20.082031 10-31.921875 10-11.832031 0-22.960937-3.679688-32-10 1.039063-16.71875 14.960937-30 32-30zm0 0" fill="#ed5565"/><path d="m80.515625 216c0 8.878906-7.191406 16-16 16-8.871094 0-16-7.121094-16-16 0-8.800781 7.128906-16 16-16 8.800781 0 16 7.199219 16 16zm0 0" fill="#eac6bb"/><path d="m232.355469 8c48.640625 0 88 39.441406 88 88 0 48.640625-39.359375 88-88 88-48.558594 0-88-39.359375-88-88 0-48.558594 39.441406-88 88-88zm0 0" fill="#e6e9ed"/><path d="m232.355469 8c-4.078125 0-8.070313.375-12 .910156 42.921875 5.882813 75.976562 42.601563 75.976562 87.089844 0 44.550781-33.054687 81.214844-75.976562 87.089844 3.929687.535156 7.921875.910156 12 .910156 48.640625 0 88-39.359375 88-88 0-48.558594-39.359375-88-88-88zm0 0" fill="#ccd1d9"/><path d="m384.355469 216c0 8.878906 7.191406 16 16 16-16.960938 0-30.878907 13.28125-31.917969 30-14.5625-10.078125-24.082031-26.960938-24.082031-46 0-30.878906 25.121093-56 56-56 30.960937 0 56 25.121094 56 56 0 19.121094-9.519531 35.921875-24.078125 46-1.042969-16.71875-14.882813-30-31.921875-30 8.871093 0 16-7.121094 16-16 0-8.800781-7.128907-16-16-16-8.800781 0-16 7.199219-16 16zm0 0" fill="#656d78"/><path d="m416.355469 216c0 8.878906-7.128907 16-16 16-8.808594 0-16-7.121094-16-16 0-8.800781 7.191406-16 16-16 8.878906 0 16 7.199219 16 16zm0 0" fill="#eac6bb"/><path d="m400.355469 232c17.039062 0 30.871093 13.28125 31.921875 30-9.042969 6.320312-20.082032 10-31.921875 10-11.839844 0-22.878907-3.679688-31.917969-10 1.039062-16.71875 14.957031-30 31.917969-30zm0 0" fill="#5d9cec"/><path d="m320.355469 304v16l-24-24s-29.679688 16-64 16c-34.238281 0-64-16-64-16l-24 24v-16c0-48.558594 39.441406-88 88-88 48.640625 0 88 39.441406 88 88zm0 0" fill="#656d78"/><path d="m232.355469 216c-4.078125 0-8.070313.375-12 .910156 40.390625 5.53125 72.410156 38.160156 76 79.089844l24 24v-16c0-48.558594-39.359375-88-88-88zm0 0" fill="#545c66"/><path d="m320.355469 320v32c0 34.238281-19.519531 63.839844-48 78.398438-12 6.167968-25.597657 9.601562-40 9.601562-14.398438 0-28-3.441406-40-9.601562-28.488281-14.550782-48-44.160157-48-78.398438v-32l24-24s29.761719 16 64 16c34.320312 0 64-16 64-16zm0 0" fill="#eac6bb"/><path d="m296.355469 296-.023438.015625v55.984375c0 34.238281-19.519531 63.839844-48 78.398438-8.601562 4.417968-18.039062 7.371093-27.992187 8.722656 3.9375.535156 7.9375.878906 12.015625.878906 14.402343 0 28-3.441406 40-9.601562 28.480469-14.550782 48-44.160157 48-78.398438v-32zm0 0" fill="#d3b1a9"/><path d="m232.355469 440c14.402343 0 28-3.441406 40-9.601562v25.601562l-16 16-24-8-24 8-16-16v-25.601562c12 6.160156 25.601562 9.601562 40 9.601562zm0 0" fill="#87bcf4"/><path d="m208.355469 472 24-8 24 8 16-16h32c26.550781 0 48 21.519531 48 48h-240c0-26.480469 21.511719-48 48-48h32zm0 0" fill="#5d9cec"/><path d="m304.355469 456h-24.023438c26.550781 0 48 21.519531 48 48h24.023438c0-26.480469-21.441407-48-48-48zm0 0" fill="#4a89dc"/><path d="m112.371094 512c-4.421875 0-8-3.574219-8-8 0-30.871094 25.128906-56 56-56 4.425781 0 8 3.574219 8 8s-3.574219 8-8 8c-22.054688 0-40 17.945312-40 40 0 4.425781-3.574219 8-8 8zm0 0"/><path d="m192.371094 464.015625-32.007813-.015625c-4.414062 0-7.992187-3.585938-7.992187-8 0-4.425781 3.585937-8 8-8h.007812l32 .015625c4.417969 0 7.992188 3.585937 7.992188 8 0 4.425781-3.582032 8-8 8zm0 0"/><path d="m352.371094 512c-4.421875 0-8-3.574219-8-8 0-22.054688-17.941406-40-40-40-4.421875 0-8-3.574219-8-8s3.578125-8 8-8c30.871094 0 56 25.128906 56 56 0 4.425781-3.574219 8-8 8zm0 0"/><path d="m272.371094 464.015625c-4.414063 0-8-3.574219-8-8 0-4.414063 3.578125-8 7.992187-8l32-.015625h.007813c4.417968 0 8 3.574219 8 8 0 4.414062-3.574219 8-7.992188 8zm0 0"/><path d="m192.371094 464.015625c-4.421875 0-8-3.574219-8-8v-25.609375c0-4.421875 3.578125-8 8-8 4.425781 0 8 3.578125 8 8v25.609375c0 4.425781-3.574219 8-8 8zm0 0"/><path d="m272.371094 464c-4.421875 0-8-3.574219-8-8v-25.59375c0-4.421875 3.578125-8 8-8 4.425781 0 8 3.578125 8 8v25.59375c0 4.425781-3.574219 8-8 8zm0 0"/><path d="m232.371094 448c-52.933594 0-96-43.0625-96-96 0-4.425781 3.578125-8 8-8 4.425781 0 8 3.574219 8 8 0 44.113281 35.890625 80 80 80 44.113281 0 80-35.886719 80-80 0-4.425781 3.578125-8 8-8 4.425781 0 8 3.574219 8 8 0 52.9375-43.0625 96-96 96zm0 0"/><path d="m320.371094 312c-4.421875 0-8-3.574219-8-8 0-44.113281-35.886719-80-80-80-44.109375 0-80 35.886719-80 80 0 4.425781-3.574219 8-8 8-4.421875 0-8-3.574219-8-8 0-52.9375 43.066406-96 96-96 52.9375 0 96 43.0625 96 96 0 4.425781-3.574219 8-8 8zm0 0"/><path d="m144.371094 360.015625c-4.421875 0-8-3.574219-8-8v-48.015625c0-4.425781 3.578125-8 8-8 4.425781 0 8 3.574219 8 8v48.015625c0 4.425781-3.574219 8-8 8zm0 0"/><path d="m320.371094 360.015625c-4.421875 0-8-3.574219-8-8v-48.015625c0-4.425781 3.578125-8 8-8 4.425781 0 8 3.574219 8 8v48.015625c0 4.425781-3.574219 8-8 8zm0 0"/><path d="m320.371094 328c-2.046875 0-4.09375-.785156-5.65625-2.34375l-24-24c-3.125-3.128906-3.125-8.183594 0-11.3125 3.128906-3.128906 8.183594-3.128906 11.3125 0l24 24c3.128906 3.128906 3.128906 8.183594 0 11.3125-1.558594 1.558594-3.605469 2.34375-5.65625 2.34375zm0 0"/><path d="m232.371094 320c-35.878906 0-66.503906-16.265625-67.792969-16.953125-3.886719-2.09375-5.34375-6.933594-3.253906-10.832031 2.085937-3.878906 6.917969-5.375 10.832031-3.261719.28125.152344 28.472656 15.046875 60.214844 15.046875 31.898437 0 59.929687-14.886719 60.207031-15.046875 3.875-2.097656 8.746094-.632813 10.832031 3.253906 2.089844 3.890625.632813 8.746094-3.253906 10.832031-1.273438.695313-31.894531 16.960938-67.785156 16.960938zm0 0"/><path d="m144.371094 328c-2.046875 0-4.09375-.785156-5.65625-2.34375-3.125-3.128906-3.125-8.183594 0-11.3125l24-24c3.128906-3.128906 8.183594-3.128906 11.3125 0s3.128906 8.183594 0 11.3125l-24 24c-1.558594 1.558594-3.605469 2.34375-5.65625 2.34375zm0 0"/><path d="m208.371094 480c-2.046875 0-4.09375-.785156-5.65625-2.34375l-16-15.984375c-3.125-3.121094-3.125-8.183594 0-11.3125 3.128906-3.128906 8.183594-3.128906 11.3125 0l16 15.984375c3.128906 3.121094 3.128906 8.183594 0 11.3125-1.558594 1.558594-3.605469 2.34375-5.65625 2.34375zm0 0"/><path d="m208.371094 480c-3.351563 0-6.472656-2.121094-7.582032-5.472656-1.402343-4.191406.863282-8.726563 5.054688-10.121094l24-8c4.222656-1.414062 8.71875.867188 10.121094 5.058594 1.398437 4.191406-.863282 8.726562-5.058594 10.121094l-24 8c-.847656.277343-1.695312.414062-2.535156.414062zm0 0"/><path d="m256.371094 480c-2.046875 0-4.09375-.785156-5.65625-2.34375-3.125-3.128906-3.125-8.191406 0-11.3125l16-15.984375c3.128906-3.128906 8.183594-3.128906 11.3125 0s3.128906 8.191406 0 11.3125l-16 15.984375c-1.558594 1.558594-3.605469 2.34375-5.65625 2.34375zm0 0"/><path d="m256.371094 480c-.832032 0-1.6875-.136719-2.527344-.414062l-24-8c-4.183594-1.394532-6.457031-5.921876-5.054688-10.121094 1.398438-4.183594 5.894532-6.472656 10.117188-5.058594l24 8c4.1875 1.394531 6.457031 5.921875 5.058594 10.121094-1.121094 3.351562-4.242188 5.472656-7.59375 5.472656zm0 0"/><path d="m232.371094 192c-52.933594 0-96-43.0625-96-96s43.066406-96 96-96c52.9375 0 96 43.0625 96 96s-43.0625 96-96 96zm0-176c-44.109375 0-80 35.886719-80 80s35.890625 80 80 80c44.113281 0 80-35.886719 80-80s-35.886719-80-80-80zm0 0"/><path d="m64.5 280.023438c-35.289062 0-64-28.710938-64-64 0-35.289063 28.710938-64 64-64s64 28.710937 64 64c0 35.289062-28.710938 64-64 64zm0-112c-26.472656 0-48 21.527343-48 48 0 26.472656 21.527344 48 48 48s48-21.527344 48-48c0-26.472657-21.535156-48-48-48zm0 0"/><path d="m64.5 240.023438c-13.230469 0-24-10.765626-24-24 0-13.230469 10.769531-24 24-24s24 10.769531 24 24c0 13.234374-10.769531 24-24 24zm0-32c-4.414062 0-8 3.585937-8 8 0 4.417968 3.585938 8 8 8s8-3.582032 8-8c0-4.414063-3.585938-8-8-8zm0 0"/><path d="m96.421875 270.023438c-4.195313 0-7.722656-3.261719-7.976563-7.503907-.785156-12.609375-11.296874-22.496093-23.953124-22.496093s-23.167969 9.878906-23.953126 22.496093c-.261718 4.410157-4 7.785157-8.480468 7.496094-4.40625-.273437-7.765625-4.070313-7.496094-8.480469 1.296875-21.03125 18.832031-37.503906 39.921875-37.503906 21.085937 0 38.625 16.480469 39.917969 37.503906.273437 4.410156-3.085938 8.199219-7.496094 8.480469-.148438 0-.316406.007813-.484375.007813zm0 0"/><path d="m400.371094 280.023438c-35.285156 0-64-28.710938-64-64 0-35.289063 28.714844-64 64-64 35.289062 0 64 28.710937 64 64 0 35.289062-28.710938 64-64 64zm0-112c-26.472656 0-48 21.527343-48 48 0 26.472656 21.527344 48 48 48s48-21.527344 48-48c0-26.472657-21.527344-48-48-48zm0 0"/><path d="m400.371094 240.023438c-13.230469 0-24-10.765626-24-24 0-13.230469 10.769531-24 24-24 13.234375 0 24 10.769531 24 24 0 13.234374-10.765625 24-24 24zm0-32c-4.414063 0-8 3.585937-8 8 0 4.417968 3.585937 8 8 8 4.417968 0 8-3.582032 8-8 0-4.414063-3.582032-8-8-8zm0 0"/><path d="m432.292969 270.023438c-4.191407 0-7.722657-3.261719-7.976563-7.503907-.785156-12.609375-11.296875-22.496093-23.953125-22.496093s-23.167969 9.878906-23.953125 22.496093c-.261718 4.410157-3.988281 7.785157-8.476562 7.496094-4.410156-.273437-7.769532-4.070313-7.496094-8.480469 1.292969-21.03125 18.832031-37.503906 39.917969-37.503906 21.089843 0 38.625 16.480469 39.921875 37.503906.269531 4.410156-3.089844 8.199219-7.496094 8.480469-.152344 0-.320312.007813-.488281.007813zm0 0"/><path d="m232.5 128.007812c-4.390625 0-7.96875-3.535156-8-7.9375-.097656-11.734374 9.601562-17.65625 17.390625-22.421874 9.058594-5.535157 14.609375-9.359376 14.609375-17.648438 0-13.230469-10.769531-24-24-24s-24 10.769531-24 24c0 4.425781-3.574219 8-8 8s-8-3.574219-8-8c0-22.054688 17.945312-40 40-40s40 17.945312 40 40c0 17.679688-12.863281 25.550781-22.265625 31.296875-5.886719 3.597656-9.757813 6.160156-9.734375 8.648437.03125 4.421876-3.511719 8.03125-7.9375 8.0625-.023438 0-.039062 0-.0625 0zm0 0"/><path d="m232.613281 151.992188c-4.425781 0-8.042969-3.578126-8.042969-8 0-4.425782 3.539063-8 7.953126-8h.089843c4.414063 0 8 3.574218 8 8 0 4.421874-3.585937 8-8 8zm0 0"/></svg>