<?xml version="1.0" encoding="iso-8859-1"?>
<!-- Generator: Adobe Illustrator 19.0.0, SVG Export Plug-In . SVG Version: 6.00 Build 0)  -->
<svg version="1.1" id="Capa_1" xmlns="http://www.w3.org/2000/svg" xmlns:xlink="http://www.w3.org/1999/xlink" x="0px" y="0px"
	 viewBox="0 0 512 512" style="enable-background:new 0 0 512 512;" xml:space="preserve">
<path style="fill:#FF5D5D;" d="M326.941,120.218c-27.942,0-53.141,12.842-70.941,33.423c-17.8-20.581-42.999-33.423-70.941-33.423
	c-53.933,0-97.655,47.835-97.655,106.843C87.404,309.717,256,424.358,256,424.358s168.596-114.641,168.596-197.296
	C424.596,168.053,380.874,120.218,326.941,120.218z"/>
<path style="fill:#FFFFFF;" d="M340,329.766v-24.487c0-17.664-12.59-32.82-29.955-36.058l-21.365-3.985l-65.441,0.015l-21.284,3.97
	C184.59,272.46,172,287.615,172,305.279v24.487H340z"/>
<path style="fill:#FCC69D;" d="M256,182.234L256,182.234c-20.987,0-38,17.013-38,38v16.178c0,20.987,17.013,38,38,38l0,0
	c20.987,0,38-17.013,38-38v-16.178C294,199.247,276.987,182.234,256,182.234z"/>
<circle style="fill:#72D8FF;" cx="54" cy="54" r="44"/>
<circle style="fill:#A0E557;" cx="54" cy="458" r="44"/>
<circle style="fill:#72D8FF;" cx="458" cy="458" r="44"/>
<circle style="fill:#A0E557;" cx="458" cy="54" r="44"/>
<path d="M423.91,176.24c-2.248-5.045-8.16-7.313-13.204-5.065c-5.045,2.248-7.313,8.159-5.065,13.204
	c5.942,13.339,8.956,27.699,8.956,42.683c0,27.873-22.776,64.973-66.09,107.943c0.941-1.525,1.493-3.315,1.493-5.238V305.28
	c0-22.47-16.032-41.769-38.122-45.889l-12.55-2.341c2.992-6.256,4.672-13.254,4.672-20.639v-16.178c0-26.467-21.533-48-48-48
	s-48,21.533-48,48v16.178c0,7.384,1.68,14.383,4.671,20.639l-12.55,2.341C178.032,263.511,162,282.81,162,305.279v24.487
	c0,1.923,0.552,3.713,1.493,5.238c-43.314-42.97-66.09-80.07-66.09-107.943c0-53.399,39.322-96.844,87.655-96.844
	c24.157,0,46.665,10.642,63.377,29.966c1.899,2.196,4.66,3.458,7.563,3.458s5.664-1.262,7.563-3.458
	c16.713-19.324,39.221-29.966,63.377-29.966c10.254,0,20.295,1.938,29.842,5.761c5.129,2.049,10.948-0.44,13-5.567
	c2.053-5.127-0.44-10.948-5.567-13.001c-11.922-4.772-24.464-7.192-37.276-7.192c-26.101,0-51.421,10.44-70.941,28.96
	c-19.52-18.52-44.84-28.96-70.941-28.96c-59.361,0-107.655,52.416-107.655,116.844c0,37.18,29.442,83.268,87.507,136.984
	c42.213,39.051,83.72,67.394,85.466,68.581c1.697,1.153,3.66,1.73,5.623,1.73c1.963,0,3.926-0.577,5.623-1.73
	c1.746-1.188,43.253-29.53,85.466-68.581c58.065-53.717,87.507-99.805,87.507-136.984
	C434.596,209.256,431.001,192.156,423.91,176.24z M228,220.233c0-15.439,12.561-28,28-28s28,12.561,28,28v16.178
	c0,15.439-12.561,28-28,28s-28-12.561-28-28V220.233z M182,305.279c0-12.843,9.164-23.873,21.789-26.229l22.922-4.64l-0.002-0.013
	c8.112,6.27,18.27,10.013,29.292,10.013c11.02,0,21.177-3.742,29.288-10.01l-0.002,0.01l22.925,4.64
	C320.836,281.406,330,292.437,330,305.279v14.487H182V305.279z M256,412.147c-12.788-9.1-45.43-33.087-77.679-62.941
	c-3.944-3.652-7.733-7.261-11.399-10.835c1.49,0.881,3.221,1.396,5.077,1.396h168c1.856,0,3.588-0.515,5.077-1.396
	c-3.666,3.574-7.454,7.184-11.399,10.835C301.43,379.061,268.788,403.048,256,412.147z"/>
<path d="M384.961,154.483c1.947,1.913,4.478,2.866,7.007,2.866c2.589,0,5.177-0.999,7.135-2.992
	c3.87-3.94,3.813-10.271-0.127-14.142l-0.562-0.546c-3.975-3.834-10.306-3.721-14.14,0.254c-3.834,3.976-3.721,10.306,0.254,14.141
	L384.961,154.483z"/>
<path d="M54,108c11.282,0,21.763-3.483,30.435-9.423l14.494,14.494C100.882,115.023,103.44,116,106,116
	c2.559,0,5.119-0.977,7.071-2.929c3.905-3.905,3.906-10.237,0-14.143L98.577,84.435C104.517,75.762,108,65.282,108,54
	c0-29.775-24.224-54-54-54S0,24.225,0,54S24.224,108,54,108z M54,20c18.748,0,34,15.252,34,34S72.748,88,54,88S20,72.748,20,54
	S35.252,20,54,20z"/>
<path d="M458,404c-11.282,0-21.763,3.483-30.435,9.423l-26.53-26.531c-3.906-3.903-10.237-3.904-14.142,0
	c-3.905,3.905-3.906,10.237,0,14.143l26.53,26.531C407.483,436.238,404,446.718,404,458c0,29.775,24.224,54,54,54s54-24.225,54-54
	S487.776,404,458,404z M458,492c-18.748,0-34-15.252-34-34s15.252-34,34-34s34,15.252,34,34S476.748,492,458,492z"/>
<path d="M404.271,117.729c2.559,0,5.119-0.977,7.071-2.929l16.223-16.223C436.237,104.517,446.718,108,458,108
	c29.776,0,54-24.225,54-54S487.776,0,458,0s-54,24.225-54,54c0,11.282,3.483,21.762,9.422,30.435L397.2,100.657
	c-3.905,3.905-3.905,10.237,0,14.143C399.152,116.752,401.712,117.729,404.271,117.729z M458,20c18.748,0,34,15.252,34,34
	s-15.252,34-34,34s-34-15.252-34-34S439.252,20,458,20z"/>
<path d="M104.173,393.685l-19.738,19.738C75.763,407.483,65.282,404,54,404c-29.776,0-54,24.225-54,54s24.224,54,54,54
	s54-24.225,54-54c0-11.282-3.483-21.762-9.423-30.435l19.738-19.738c3.905-3.905,3.905-10.237,0-14.143
	C114.41,389.78,108.078,389.78,104.173,393.685z M54,492c-18.748,0-34-15.252-34-34s15.252-34,34-34s34,15.252,34,34
	S72.748,492,54,492z"/>
<path d="M133.12,368.88c-2.64,0-5.22,1.07-7.07,2.93c-1.87,1.86-2.93,4.44-2.93,7.07c0,2.64,1.06,5.21,2.93,7.07
	c1.86,1.869,4.43,2.939,7.07,2.939c2.63,0,5.21-1.07,7.07-2.939c1.86-1.86,2.93-4.431,2.93-7.07c0-2.63-1.07-5.21-2.93-7.07
	C138.33,369.95,135.75,368.88,133.12,368.88z"/>
<g>
</g>
<g>
</g>
<g>
</g>
<g>
</g>
<g>
</g>
<g>
</g>
<g>
</g>
<g>
</g>
<g>
</g>
<g>
</g>
<g>
</g>
<g>
</g>
<g>
</g>
<g>
</g>
<g>
</g>
</svg>
