<svg id="Layer_35" enable-background="new 0 0 64 64" height="512" viewBox="0 0 64 64" width="512" xmlns="http://www.w3.org/2000/svg" xmlns:xlink="http://www.w3.org/1999/xlink"><linearGradient id="SVGID_1_" gradientUnits="userSpaceOnUse" x1="32" x2="32" y1="63" y2="1"><stop offset="0" stop-color="#9f2fff"/><stop offset="1" stop-color="#0bb1d3"/></linearGradient><path d="m50 48c0 1.103-.897 2-2 2s-2-.897-2-2v-1h-4v-2.127c1.724-.444 3-2.013 3-3.873s-1.276-3.429-3-3.873v-4.127h-12c-2.206 0-4 1.794-4 4v10 2 10c0 2.206 1.794 4 4 4h10 2 10c2.206 0 4-1.794 4-4v-12h-6zm-22-11c0-1.103.897-2 2-2h10v4h1c1.103 0 2 .897 2 2s-.897 2-2 2h-1v4h-2.127c-.444-1.724-2.013-3-3.873-3s-3.429 1.276-3.873 3h-2.127zm2 24c-1.103 0-2-.897-2-2v-10h4v-1c0-1.103.897-2 2-2s2 .897 2 2v1h4v2.127c-1.724.444-3 2.013-3 3.873s1.276 3.429 3 3.873v2.127zm21.873-12h2.127v10c0 1.103-.897 2-2 2h-10v-4h-1c-1.103 0-2-.897-2-2s.897-2 2-2h1v-4h2.127c.444 1.724 2.013 3 3.873 3s3.429-1.276 3.873-3zm-10.873-48c-2.206 0-4 1.794-4 4v12h6v-1c0-1.103.897-2 2-2s2 .897 2 2v1h6v-4c2.206 0 4-1.794 4-4s-1.794-4-4-4v-4zm14 8c0 1.103-.897 2-2 2h-2v4h-2.127c-.444-1.724-2.013-3-3.873-3s-3.429 1.276-3.873 3h-2.127v-10c0-1.103.897-2 2-2h10v4h2c1.103 0 2 .897 2 2zm1 17v.172c0 .801-.313 1.555-.879 2.121l-.828.828c-.187.187-.293.444-.293.707v1.172h-2v-1.172c0-.801.312-1.555.879-2.121l.828-.828c.187-.187.293-.444.293-.707v-.172c0-.552-.448-1-1-1s-1 .448-1 1v1h-2v-1c0-1.654 1.346-3 3-3s3 1.346 3 3zm-4 7h2v2h-2zm1-14c-5.514 0-10 4.486-10 10 0 3.983 2.383 7.577 6 9.156v4.979l5.038-4.198c5.052-.525 8.962-4.827 8.962-9.937 0-5.514-4.486-10-10-10zm.568 17.971-.322.022-2.246 1.872v-2.095l-.666-.235c-3.19-1.131-5.334-4.158-5.334-7.535 0-4.411 3.589-8 8-8s8 3.589 8 8c0 4.176-3.265 7.677-7.432 7.971zm-9.568 21.029h2v2h-2zm4 0h2v2h-2zm-19-7h2v2h-2zm0 4h2v2h-2zm12-50h2v2h-2zm4 0h2v2h-2zm-13 34h-2v-2h2zm4 0h-2v-2h2zm-3-22.62v-11.88c0-1.93-1.57-3.5-3.5-3.5s-3.5 1.57-3.5 3.5v9.587l-5.748.525c1.085-1.233 1.748-2.845 1.748-4.612 0-3.859-3.141-7-7-7s-7 3.141-7 7c0 2.037.881 3.869 2.275 5.149-5.247.832-9.275 5.374-9.275 10.851v3c0 2.757 2.243 5 5 5h1v4 1 19.5c0 2.481 2.019 4.5 4.5 4.5 1.421 0 2.675-.675 3.5-1.706.825 1.031 2.079 1.706 3.5 1.706 2.481 0 4.5-2.019 4.5-4.5v-36.595l5.498-.55c2.566-.257 4.502-2.396 4.502-4.975zm-23-6.38c0-2.757 2.243-5 5-5s5 2.243 5 5-2.243 5-5 5-5-2.243-5-5zm3.5 24c1.93 0 3.5-1.57 3.5-3.5s-1.57-3.5-3.5-3.5h-4.5v-2h8v5.5 6.5h-8v-3zm-2 27c-1.379 0-2.5-1.121-2.5-2.5v-19.5h5v19.5c0 1.379-1.121 2.5-2.5 2.5zm9.5-40.905v38.405c0 1.379-1.121 2.5-2.5 2.5s-2.5-1.121-2.5-2.5v-19.5h3v-16h-12v4h-2v2h8.5c.827 0 1.5.673 1.5 1.5s-.673 1.5-1.5 1.5h-7.5c-1.654 0-3-1.346-3-3v-3c0-4.963 4.037-9 9-9l2.944-.003c.019 0 .037.003.056.003s.038-.003.058-.003l1.033-.001 11.909-1.083v-11.413c0-.827.673-1.5 1.5-1.5s1.5.673 1.5 1.5v11.88c0 1.548-1.161 2.831-2.701 2.985z" fill="url(#SVGID_1_)"/></svg>