<svg height="499pt" viewBox="-49 0 499 499.28" width="499pt" xmlns="http://www.w3.org/2000/svg" xmlns:xlink="http://www.w3.org/1999/xlink"><linearGradient id="a"><stop offset="0" stop-color="#fff200"/><stop offset="1" stop-color="#cd118c"/></linearGradient><linearGradient id="b" gradientUnits="userSpaceOnUse" x1="-13.476" x2="442.524" xlink:href="#a" y1="29.144" y2="477.144"/><linearGradient id="c" gradientUnits="userSpaceOnUse" x1="-19.572" x2="436.428" xlink:href="#a" y1="35.352" y2="483.352"/><linearGradient id="d" gradientUnits="userSpaceOnUse" x1="9.132" x2="465.132" xlink:href="#a" y1="6.136" y2="454.136"/><linearGradient id="e" gradientUnits="userSpaceOnUse" x1="50.508" x2="506.508" xlink:href="#a" y1="-35.984" y2="412.016"/><linearGradient id="f" gradientUnits="userSpaceOnUse" x1="30.516" x2="486.516" xlink:href="#a" y1="-15.632" y2="432.368"/><linearGradient id="g" gradientUnits="userSpaceOnUse" x1="10.516" x2="466.516" xlink:href="#a" y1="4.72" y2="452.72"/><linearGradient id="h" gradientUnits="userSpaceOnUse" x1="-25.196" x2="430.804" xlink:href="#a" y1="41.072" y2="489.072"/><linearGradient id="i" gradientUnits="userSpaceOnUse" x1="-51.084" x2="404.916" xlink:href="#a" y1="67.424" y2="515.424"/><linearGradient id="j" gradientUnits="userSpaceOnUse" x1="-76.98" x2="379.02" xlink:href="#a" y1="93.776" y2="541.776"/><linearGradient id="k" gradientUnits="userSpaceOnUse" x1="-93.044" x2="362.956" xlink:href="#a" y1="110.136" y2="558.136"/><linearGradient id="l" gradientUnits="userSpaceOnUse" x1="9.324" x2="465.324" xlink:href="#a" y1="5.936" y2="453.936"/><path d="m16.140625 16h256v136h16v-152h-288v368h176v-16h-160zm0 0" fill="url(#b)"/><path d="m386.8125 249.34375c-3.242188-2.601562-5.96875-5.789062-8.039062-9.390625-.519532-4.34375-.203126-8.746094.925781-12.96875 2.832031-8.515625 2.027343-17.820313-2.222657-25.71875-6.253906-6.511719-14.917968-10.15625-23.945312-10.066406-4.304688-.21875-8.527344-1.25-12.445312-3.039063-2.863282-3.144531-5.101563-6.800781-6.609376-10.777344-2.730468-8.691406-8.941406-15.863281-17.152343-19.808593-8.734375-1.558594-17.726563.542969-24.863281 5.816406-3.75 2.421875-7.933594 4.097656-12.320313 4.929687-4.390625-.84375-8.574219-2.53125-12.320313-4.96875-7.140624-5.273437-16.132812-7.375-24.871093-5.816406-8.207031 3.949219-14.414063 11.121094-17.144531 19.808594-1.507813 3.972656-3.75 7.628906-6.609376 10.777344-3.921874 1.785156-8.144531 2.820312-12.449218 3.039062-9.03125-.078125-17.695313 3.578125-23.941406 10.105469-4.253907 7.898437-5.058594 17.203125-2.226563 25.71875 1.132813 4.222656 1.449219 8.625.929687 12.96875-2.058593 3.597656-4.773437 6.785156-8 9.390625-7.515624 5.316406-12.476562 13.527344-13.6875 22.65625 1.199219 9.121094 6.144532 17.332031 13.648438 22.65625 3.226562 2.605469 5.9375 5.792969 8 9.390625.515625 4.34375.203125 8.746094-.929688 12.96875-2.832031 8.515625-2.027343 17.820313 2.226563 25.71875 6.246094 6.527344 14.910156 10.183594 23.941406 10.105469 4.304688.21875 8.527344 1.253906 12.449219 3.039062 2.128906 2.085938 3.824219 4.574219 4.984375 7.320313v136.082031l56-56 56 56v-136.082031c1.144531-2.753907 2.824219-5.253907 4.945313-7.351563 3.917968-1.789062 8.140624-2.820312 12.445312-3.039062 9.035156.078125 17.699219-3.578125 23.945312-10.105469 4.25-7.898437 5.054688-17.207031 2.222657-25.71875-1.128907-4.226563-1.445313-8.625-.925781-12.96875 2.070312-3.605469 4.796874-6.789063 8.039062-9.390625 7.492188-5.320312 12.4375-13.515625 13.648438-22.625-1.203126-9.121094-6.148438-17.332031-13.648438-22.65625zm-106.671875 171.34375-40 40v-75.441406c.902344.484375 1.84375.890625 2.816406 1.21875 1.824219.589844 3.730469.886718 5.648438.878906 6.84375-.648438 13.433593-2.945312 19.199219-6.695312 3.75-2.4375 7.941406-4.125 12.335937-4.96875 4.386719.84375 8.570313 2.53125 12.320313 4.96875 7.140624 5.269531 16.132812 7.371093 24.871093 5.816406.96875-.328125 1.90625-.734375 2.808594-1.21875v75.441406zm95.664063-137.597656c-5.34375 4.257812-9.554688 9.773437-12.25 16.054687-1.566407 6.84375-1.429688 13.972657.402343 20.75.871094 4.800781 2.070313 11.425781.582031 13.464844-1.488281 2.039063-8.230468 3-13.136718 3.65625-6.96875.332031-13.746094 2.378906-19.734375 5.960937-5.199219 4.558594-9.195313 10.328126-11.632813 16.800782-2.269531 4.742187-5.09375 10.65625-7.640625 11.480468-2.277343.695313-8.101562-2.402343-12.359375-4.683593-5.960937-3.902344-12.796875-6.269531-19.894531-6.894531-7.097656.621093-13.933594 2.984374-19.898437 6.878906-4.261719 2.289062-10.078126 5.425781-12.351563 4.679687-2.558594-.796875-5.382813-6.734375-7.648437-11.476562-2.441407-6.472657-6.4375-12.242188-11.636719-16.800781-5.984375-3.582032-12.761719-5.632813-19.730469-5.960938-4.902344-.65625-11.605469-1.550781-13.136719-3.65625-1.527343-2.105469-.285156-8.640625.585938-13.464844 1.832031-6.777344 1.96875-13.90625.398437-20.75-2.695312-6.28125-6.902344-11.796875-12.246094-16.058594-3.847656-3.664062-8.65625-8.222656-8.65625-11.054687s4.800782-7.390625 8.65625-11.054687c5.34375-4.261719 9.550782-9.777344 12.246094-16.058594 1.570313-6.84375 1.433594-13.96875-.398437-20.75-.871094-4.800782-2.070313-11.425782-.585938-13.464844 1.488281-2.039062 8.234375-3 13.136719-3.65625 6.96875-.332031 13.75-2.378906 19.738281-5.960938 5.195313-4.558593 9.191407-10.328124 11.628907-16.796874 2.273437-4.746094 5.097656-10.65625 7.640624-11.480469.261719-.078125.53125-.113281.800782-.113281 4.105468.910156 8.019531 2.535156 11.558594 4.800781 5.96875 3.882812 12.804687 6.230469 19.898437 6.839843 7.097656-.621093 13.929687-2.984374 19.894531-6.878906 4.257813-2.289062 10.023438-5.472656 12.351563-4.679687 2.5625.796875 5.386719 6.742187 7.648437 11.476562 2.441406 6.472657 6.441406 12.242188 11.640625 16.800781 5.984375 3.582032 12.761719 5.632813 19.726563 5.960938 4.90625.65625 11.609375 1.550781 13.136718 3.65625 1.527344 2.105469.289063 8.640625-.582031 13.464844-1.832031 6.777344-1.96875 13.90625-.402343 20.75 2.695312 6.28125 6.90625 11.796875 12.25 16.058594 3.847656 3.664062 8.65625 8.222656 8.65625 11.054687s-4.808594 7.40625-8.65625 11.070313zm0 0" fill="url(#c)"/><path d="m288.140625 209.054688-36.441406 24.289062 8.878906 13.3125 11.5625-7.710938v65.054688h-16v16h48v-16h-16zm0 0" fill="url(#d)"/><path d="m88.140625 48h112v16h-112zm0 0" fill="url(#e)"/><path d="m32.140625 88h224v16h-224zm0 0" fill="url(#f)"/><path d="m32.140625 128h224v16h-224zm0 0" fill="url(#g)"/><path d="m32.140625 168h160v16h-160zm0 0" fill="url(#h)"/><path d="m32.140625 208h136v16h-136zm0 0" fill="url(#i)"/><path d="m32.140625 248h112v16h-112zm0 0" fill="url(#j)"/><path d="m32.140625 288h128v16h-128zm0 0" fill="url(#k)"/><path d="m280.140625 192c-44.183594 0-80 35.816406-80 80s35.816406 80 80 80 80-35.816406 80-80c-.050781-44.164062-35.839844-79.953125-80-80zm0 144c-35.347656 0-64-28.652344-64-64s28.652344-64 64-64c35.34375 0 64 28.652344 64 64-.039063 35.328125-28.671875 63.960938-64 64zm0 0" fill="url(#l)"/></svg>