<svg height="512pt" viewBox="0 -37 512.00006 512" width="512pt" xmlns="http://www.w3.org/2000/svg"><path d="m342.824219 266.125c0 94.667969-76.746094 171.410156-171.414063 171.410156-94.667968 0-171.410156-76.742187-171.410156-171.410156v-154.425781c0-2.84375 2.304688-5.144531 5.148438-5.144531h2.058593c51.171875 0 92.652344-41.484376 92.652344-92.65625v-8.75c0-2.84375 2.304687-5.148438 5.148437-5.148438h132.804688c2.84375 0 5.148438 2.304688 5.148438 5.148438v11.152343c0 51.171875 41.480468 92.652344 92.652343 92.652344h2.0625c2.839844 0 5.144531 2.308594 5.144531 5.148437v152.023438zm0 0" fill="#7bd6a4"/><path d="m170.898438 30.371094v376.28125c-77.328126 0-140.011719-62.683594-140.011719-140.011719v-135.378906c53.917969 0 97.628906-43.710938 97.628906-97.632813v-3.257812zm0 0" fill="#37aa65"/><path d="m342.824219 114.097656v152.027344c0 94.671875-76.738281 171.410156-171.414063 171.410156-5.207031 0-10.355468-.234375-15.441406-.6875 87.4375-7.804687 155.96875-81.257812 155.96875-170.722656v-152.027344c0-2.839844-2.304688-5.144531-5.144531-5.144531h-2.058594c-51.175781 0-92.65625-41.480469-92.65625-92.65625v-11.148437c0-2.84375-2.304687-5.148438-5.148437-5.148438h30.886718c2.839844 0 5.148438 2.304688 5.148438 5.148438v11.148437c0 51.175781 41.476562 92.652344 92.652344 92.652344h2.058593c2.839844 0 5.148438 2.308593 5.148438 5.148437zm0 0" fill="#28af5f"/><path d="m180.675781 315.027344h-54.046875c-6.824218 0-12.355468-5.53125-12.355468-12.355469v-132.804687c0-6.824219 5.53125-12.355469 12.355468-12.355469h54.046875zm0 0" fill="#ffd47d"/><path d="m403.902344 333.546875h38.132812c10.101563 0 18.675782-8.265625 18.488282-18.363281-.183594-9.789063-8.179688-17.671875-18.015626-17.671875h27.242188c12.558594 0 23.257812-9.765625 23.703125-22.316407.46875-13.179687-10.074219-24.007812-23.148437-24.007812h17.976562c12.558594 0 23.257812-9.769531 23.703125-22.320312.46875-13.179688-10.074219-24.007813-23.148437-24.007813h-18.53125c13.074218 0 23.617187-10.832031 23.148437-24.007813-.445313-12.550781-11.144531-22.320312-23.703125-22.320312h-63.726562c-2.84375 0-5.144532-2.300781-5.148438-5.144531l-.0625-94.203125c0-15.632813-12.671875-28.308594-28.308594-28.308594-15.636718 0-28.3125 12.675781-28.3125 28.308594v24.25c0 17.597656-8.992187 33.976562-23.839844 43.425781l-42.179687 26.84375c-4.957031 3.152344-10.707031 4.828125-16.582031 4.828125h-26.523438l8.988282 159.003906 16.433593 9.316406c7.742188 4.386719 16.488281 6.695313 25.386719 6.695313h117.511719" fill="#fcd09f"/><path d="m229.578125 330.46875h-43.238281c-8.53125 0-15.441406-6.914062-15.441406-15.441406v-157.515625c0-8.527344 6.914062-15.441407 15.441406-15.441407h43.238281c8.527344 0 15.441406 6.914063 15.441406 15.441407v157.515625c0 8.527344-6.914062 15.441406-15.441406 15.441406zm0 0" fill="#fff7e6"/><path d="m511.648438 228.878906c-.453126 12.550782-11.148438 22.320313-23.707032 22.320313h-17.976562c13.074218 0 23.617187 10.828125 23.152344 24.007812-.453126 12.550781-11.148438 22.320313-23.707032 22.320313h-27.242187c9.832031 0 17.832031 7.875 18.015625 17.675781.1875 10.089844-8.386719 18.355469-18.488282 18.355469h-30.886718c10.101562 0 18.675781-8.265625 18.492187-18.355469-.1875-9.800781-8.1875-17.675781-18.015625-17.675781h27.238282c12.5625 0 23.257812-9.769532 23.710937-22.320313.460937-13.179687-10.078125-24.007812-23.152344-24.007812h17.972657c12.5625 0 23.257812-9.769531 23.710937-22.320313.460937-13.179687-10.078125-24.007812-23.152344-24.007812h-18.53125c13.074219 0 23.617188-10.832032 23.152344-24.007813-.453125-12.550781-11.148437-22.320312-23.710937-22.320312h30.886718c12.558594 0 23.253906 9.769531 23.707032 22.320312.464843 13.175781-10.078126 24.007813-23.152344 24.007813h18.53125c13.074218 0 23.617187 10.828125 23.152344 24.007812zm0 0" fill="#f4b06c"/><path d="m405.964844 158.542969h-30.824219c-2.839844 0-5.144531-2.308594-5.144531-5.148438l-.0625-94.199219c0-9.933593-5.117188-18.683593-12.871094-23.71875 4.4375-2.902343 9.742188-4.59375 15.445312-4.59375 15.636719 0 28.308594 12.675782 28.308594 28.3125l.0625 94.199219c0 2.820313 2.277344 5.117188 5.085938 5.148438zm0 0" fill="#f4b06c"/><path d="m245.019531 157.511719v157.515625c0 8.523437-6.917969 15.441406-15.441406 15.441406h-30.882813c8.523438 0 15.441407-6.917969 15.441407-15.441406v-157.515625c0-8.523438-6.917969-15.441407-15.441407-15.441407h30.882813c8.523437 0 15.441406 6.917969 15.441406 15.441407zm0 0" fill="#e8e8e8"/></svg>