<svg id="Layer_1" height="512" viewBox="0 0 512 512" width="512" xmlns="http://www.w3.org/2000/svg" data-name="Layer 1"><path d="m467.71 413.028v77.972h-181.33v-77.97a35.42 35.42 0 0 1 14.43-25.67 34.332 34.332 0 0 1 5.01-3.05l30.33-10.95h.06v.11l20.42 27.22 13.99-9.32-13.43 53.52 20.42 27.22 20.42-27.22-13.26-52.66 12.69 8.46 20.42-27.22v-.11h.03l30.36 10.95a35.371 35.371 0 0 1 19.44 28.718z" fill="#6fe3ff"/><path d="m456.68 260.808a17.234 17.234 0 0 1 .48 4.03 16.9 16.9 0 0 1 -13.93 16.63v.11a66.355 66.355 0 0 1 -132.71 0v-.1a16.9 16.9 0 0 1 -13.97-16.64 16.721 16.721 0 0 1 .49-4.03 12.7 12.7 0 0 1 11.38-9.69l.07-.02a5.427 5.427 0 0 0 2.83 3.61s9.85 3.95 9.93 2.98l2.33-29.22a2.736 2.736 0 0 1 3.01-2.49l10.89 1.17a64.131 64.131 0 0 0 59.14-26.6l6.48.28a27.6 27.6 0 0 1 24.17 16.76l10.37 42.76 5.59-5.22a6.737 6.737 0 0 0 2.09-4.01h.02a12.732 12.732 0 0 1 11.34 9.69z" fill="#f7caa5"/><path d="m394.47 155.488a70.241 70.241 0 0 1 52.45 72.82l-1.54 22.32a4.1 4.1 0 0 1 -.06.49 6.737 6.737 0 0 1 -2.09 4.01l-5.59 5.22-10.37-42.76a27.6 27.6 0 0 0 -24.17-16.76l-6.48-.28a64.131 64.131 0 0 1 -59.14 26.6l-10.89-1.17a2.736 2.736 0 0 0 -3.01 2.49l-2.33 29.22c-.08.97-9.93-2.98-9.93-2.98a5.427 5.427 0 0 1 -2.83-3.61 5.32 5.32 0 0 1 -.14-.89l-1.51-21.9c-.11-1.65-.17-3.29-.17-4.92a70.276 70.276 0 0 1 87.8-67.9z" fill="#4b5d63"/><path d="m384.77 392.228-7.72-5.15 22.37-14.92 18.46-12.31v13.51.11l-20.42 27.22z" fill="#e2d574"/><path d="m417.88 359.848-18.46 12.31v-19.91z" fill="#cc7350"/><path d="m399.42 352.248v19.91l-22.37 14.92-22.32-14.878v-27.8l.08-.23a66.516 66.516 0 0 0 44.6-.16l.01.02v8.22z" fill="#edb288"/><path d="m384.77 392.228 13.26 52.66-20.42 27.22-20.42-27.22 13.43-53.52v-.01l6.43-4.28z" fill="#f8ec7d"/><path d="m394.47 106.988v48.5a70.76 70.76 0 0 0 -29.02-1.29v-29.47l-146.07-71.75-146.07 71.54v157.02c0 32.39 21.79 73.75 48.69 92.09l97.38 66.41 81.41-52.71.02.03a35.42 35.42 0 0 0 -14.43 25.67v16.04l-67 45.99-113.49-77.4c-35.12-23.95-61.6-74.04-61.6-116.52v-174.38l175.11-85.758z" fill="#e48e66"/><path d="m370.62 391.358v.01l-13.99 9.32-20.42-27.22v-.11-13.51l18.52 12.35 22.32 14.88z" fill="#e2d574"/><path d="m365.45 124.728v29.472a70.229 70.229 0 0 0 -58.78 69.19c0 1.63.06 3.27.17 4.92l1.51 21.9a5.32 5.32 0 0 0 .14.89l-.07.02a12.7 12.7 0 0 0 -11.38 9.69 16.721 16.721 0 0 0 -.49 4.03 16.9 16.9 0 0 0 13.97 16.64v.1a66.41 66.41 0 0 0 44.29 62.59l-.08.23v7.76l-18.52 7.63v13.57h-.06l-30.33 10.95a34.332 34.332 0 0 0 -5.01 3.05l-.02-.03-81.41 52.71-97.38-66.412c-26.9-18.34-48.69-59.7-48.69-92.09v-157.02l146.07-71.54z" fill="#f8ec7d"/><path d="m354.73 352.158v20.04l-18.52-12.35v-.06z" fill="#cc7350"/><path d="m200.712 298.819a5.98 5.98 0 0 1 -4.412-1.933l-41.78-45.3a6 6 0 1 1 8.82-8.134l37.726 40.905 74.7-68.422a6 6 0 0 1 8.105 8.85l-79.11 72.46a5.983 5.983 0 0 1 -4.049 1.574z" fill="#e48e66"/></svg>