<svg xmlns="http://www.w3.org/2000/svg" height="512pt" version="1.1" viewBox="0 0 512.001 512" width="512pt">
<g id="surface1">
<path d="M 244.957031 396.273438 L 160.996094 335.019531 C 152.488281 333.167969 143.769531 332.195312 134.964844 332.195312 L 121.117188 332.195312 C 88.851562 332.195312 62.695312 358.351562 62.695312 390.617188 L 62.695312 501.957031 L 134.636719 501.957031 L 134.636719 399.671875 L 119.054688 383.035156 L 185.242188 422.941406 L 171.75 408.535156 L 231.839844 444.761719 C 244.742188 443.402344 256 432.679688 256 417.996094 C 256 409.40625 251.898438 401.332031 244.957031 396.273438 Z M 244.957031 396.273438 " style=" stroke:none;fill-rule:nonzero;fill:rgb(62.745098%,89.803922%,34.117647%);fill-opacity:1;" />
<path d="M 377.363281 501.957031 L 458.5 501.957031 L 458.5 393.789062 C 458.5 361.523438 432.34375 335.367188 400.078125 335.367188 L 386.230469 335.367188 C 368.554688 335.367188 351.195312 339.203125 335.300781 346.476562 L 267.039062 396.273438 C 260.101562 401.332031 256 409.40625 256 417.996094 C 256 438.921875 278.851562 451.828125 296.773438 441.023438 L 392.945312 383.035156 L 377.363281 399.671875 Z M 377.363281 501.957031 " style=" stroke:none;fill-rule:nonzero;fill:rgb(44.705882%,84.705882%,100%);fill-opacity:1;" />
<path d="M 89.316406 210.425781 C 73.671875 217.054688 62.695312 232.550781 62.695312 250.613281 L 62.695312 263.074219 C 62.695312 281.136719 73.671875 296.632812 89.316406 303.261719 C 104.964844 296.632812 115.9375 281.136719 115.9375 263.074219 L 115.9375 250.613281 C 115.9375 232.550781 104.964844 217.054688 89.316406 210.425781 Z M 89.316406 210.425781 " style=" stroke:none;fill-rule:nonzero;fill:rgb(98.823529%,77.647059%,61.568627%);fill-opacity:1;" />
<path d="M 420.089844 211.636719 C 405.839844 218.816406 396.0625 233.566406 396.0625 250.609375 L 396.0625 263.074219 C 396.0625 281.171875 407.082031 296.691406 422.773438 303.296875 C 437.023438 296.117188 446.804688 281.367188 446.804688 264.324219 L 446.804688 251.859375 C 446.804688 233.765625 435.785156 218.246094 420.089844 211.636719 Z M 420.089844 211.636719 " style=" stroke:none;fill-rule:nonzero;fill:rgb(98.823529%,77.647059%,61.568627%);fill-opacity:1;" />
<path d="M 474.277344 304 C 485.902344 294.15625 493.304688 279.46875 493.304688 263.074219 L 493.304688 250.613281 C 493.304688 221.042969 469.25 196.988281 439.683594 196.988281 C 410.117188 196.988281 386.0625 221.042969 386.0625 250.613281 L 386.0625 263.074219 C 386.0625 277.324219 391.65625 290.28125 400.753906 299.894531 C 383.175781 303.816406 366.550781 311.300781 351.699219 322.132812 L 261.148438 388.195312 C 259.277344 389.558594 257.558594 391.09375 256 392.761719 C 254.441406 391.09375 252.722656 389.558594 250.851562 388.195312 L 160.300781 322.132812 C 145.449219 311.300781 128.824219 303.816406 111.246094 299.894531 C 120.34375 290.28125 125.941406 277.324219 125.941406 263.074219 L 125.941406 250.613281 C 125.941406 221.042969 101.886719 196.988281 72.316406 196.988281 C 42.75 196.988281 18.695312 221.042969 18.695312 250.613281 L 18.695312 263.074219 C 18.695312 279.46875 26.097656 294.15625 37.722656 304 C 15.375 315.273438 0 338.425781 0 365.117188 L 0 501.957031 C 0 507.480469 4.476562 511.957031 10 511.957031 L 134.636719 511.957031 C 140.15625 511.957031 144.636719 507.480469 144.636719 501.957031 L 144.636719 410.132812 L 210.0625 449.585938 C 221.609375 456.546875 235.511719 456.742188 247.253906 450.113281 C 250.566406 448.242188 253.488281 445.925781 256 443.285156 C 258.511719 445.929688 261.433594 448.242188 264.746094 450.113281 C 270.460938 453.339844 276.6875 454.949219 282.902344 454.949219 C 289.460938 454.949219 296.007812 453.160156 301.933594 449.585938 L 367.363281 410.132812 L 367.363281 501.957031 C 367.363281 507.480469 371.84375 511.957031 377.363281 511.957031 L 502 511.957031 C 507.523438 511.957031 512 507.480469 512 501.957031 L 512 465.828125 C 512 460.304688 507.523438 455.828125 502 455.828125 C 496.476562 455.828125 492 460.304688 492 465.828125 L 492 491.957031 L 387.363281 491.957031 L 387.363281 399.671875 C 387.363281 399.15625 387.3125 398.648438 387.238281 398.152344 L 398.109375 391.597656 C 402.839844 388.746094 404.359375 382.601562 401.507812 377.871094 C 398.65625 373.140625 392.507812 371.617188 387.78125 374.472656 L 291.609375 432.457031 C 286.320312 435.644531 279.957031 435.734375 274.582031 432.699219 C 269.210938 429.664062 266 424.167969 266 417.996094 C 266 412.621094 268.59375 407.519531 272.9375 404.351562 L 363.488281 338.289062 C 382.851562 324.164062 405.757812 316.695312 429.730469 316.695312 L 443.578125 316.695312 C 470.277344 316.695312 492 338.417969 492 365.117188 L 492 382.605469 C 492 388.125 496.480469 392.605469 502 392.605469 C 507.523438 392.605469 512 388.125 512 382.605469 L 512 365.117188 C 512 338.425781 496.625 315.273438 474.277344 304 Z M 38.695312 250.613281 C 38.695312 232.074219 53.777344 216.988281 72.316406 216.988281 C 90.855469 216.988281 105.9375 232.074219 105.9375 250.613281 L 105.9375 263.074219 C 105.9375 281.613281 90.855469 296.699219 72.316406 296.699219 C 53.777344 296.699219 38.695312 281.613281 38.695312 263.074219 Z M 237.417969 432.699219 C 232.039062 435.734375 225.675781 435.644531 220.390625 432.457031 L 124.21875 374.472656 C 119.488281 371.617188 113.34375 373.140625 110.492188 377.871094 C 107.640625 382.601562 109.160156 388.746094 113.890625 391.597656 L 124.75 398.144531 C 124.675781 398.644531 124.632812 399.152344 124.632812 399.671875 L 124.632812 491.957031 L 20 491.957031 L 20 365.117188 C 20 338.417969 41.722656 316.695312 68.421875 316.695312 L 82.269531 316.695312 C 106.242188 316.695312 129.148438 324.164062 148.511719 338.292969 L 239.066406 404.351562 C 243.40625 407.519531 246 412.621094 246 417.996094 C 246 424.167969 242.789062 429.664062 237.417969 432.699219 Z M 406.0625 250.613281 C 406.0625 232.074219 421.144531 216.988281 439.683594 216.988281 C 458.222656 216.988281 473.304688 232.074219 473.304688 250.613281 L 473.304688 263.074219 C 473.304688 281.613281 458.222656 296.699219 439.683594 296.699219 C 421.144531 296.699219 406.0625 281.613281 406.0625 263.074219 Z M 406.0625 250.613281 " style=" stroke:none;fill-rule:nonzero;fill:rgb(0%,0%,0%);fill-opacity:1;" />
<path d="M 502 413 C 499.371094 413 496.789062 414.058594 494.929688 415.917969 C 493.070312 417.789062 492 420.359375 492 422.988281 C 492 425.628906 493.070312 428.199219 494.929688 430.070312 C 496.789062 431.929688 499.371094 433 502 433 C 504.628906 433 507.210938 431.929688 509.070312 430.070312 C 510.929688 428.199219 512 425.628906 512 422.988281 C 512 420.359375 510.929688 417.777344 509.070312 415.917969 C 507.210938 414.058594 504.628906 413 502 413 Z M 502 413 " style=" stroke:none;fill-rule:nonzero;fill:rgb(0%,0%,0%);fill-opacity:1;" />
<path d="M 124.3125 145.789062 L 188.496094 81.601562 L 264.972656 158.074219 C 266.925781 160.027344 269.484375 161.003906 272.042969 161.003906 C 274.601562 161.003906 277.160156 160.027344 279.113281 158.074219 L 403.042969 34.144531 L 403.042969 43 C 403.042969 48.523438 407.523438 53 413.042969 53 C 418.566406 53 423.042969 48.523438 423.042969 43 L 423.042969 10 C 423.042969 4.476562 418.566406 0 413.042969 0 L 380.042969 0 C 374.523438 0 370.042969 4.476562 370.042969 10 C 370.042969 15.523438 374.523438 20 380.042969 20 L 388.902344 20 L 272.039062 136.863281 L 195.566406 60.386719 C 193.691406 58.511719 191.148438 57.460938 188.496094 57.460938 C 185.84375 57.460938 183.300781 58.511719 181.425781 60.386719 L 110.167969 131.648438 C 106.261719 135.550781 106.261719 141.882812 110.167969 145.789062 C 114.074219 149.695312 120.402344 149.695312 124.3125 145.789062 Z M 124.3125 145.789062 " style=" stroke:none;fill-rule:nonzero;fill:rgb(0%,0%,0%);fill-opacity:1;" />
<path d="M 92 173.960938 C 94.628906 173.960938 97.210938 172.890625 99.070312 171.03125 C 100.929688 169.167969 102 166.589844 102 163.960938 C 102 161.320312 100.929688 158.75 99.070312 156.890625 C 97.210938 155.03125 94.628906 153.960938 92 153.960938 C 89.371094 153.960938 86.789062 155.03125 84.929688 156.890625 C 83.070312 158.75 82 161.328125 82 163.960938 C 82 166.589844 83.070312 169.167969 84.929688 171.03125 C 86.789062 172.890625 89.371094 173.960938 92 173.960938 Z M 92 173.960938 " style=" stroke:none;fill-rule:nonzero;fill:rgb(0%,0%,0%);fill-opacity:1;" />
</g>
</svg>